#!OML:ASF F:\VICON\USERDATA\INSTALL\rory3\rory3.ASF
:FULLY-SPECIFIED
:DEGREES
527
root 4.78357 16.5078 -17.2861 29.7434 6.69422 -2.76059
lowerback 13.4545 -2.46285 6.92041
upperback -11.5907 0.933846 14.223
thorax -21.7833 1.08238 12.653
lowerneck -15.0792 2.14122 2.31094
upperneck -2.99888 2.60175 -7.96196
head 1.82423 1.02657 -2.86751
rclavicle 3.89618e-014 -4.45278e-014
rhumerus 4.10758 3.75629 6.65153
rradius 18.1719
rwrist 13.2407
rhand 30.6501 -5.39191
rfingers 7.12502
rthumb 54.2905 -24.0316
lclavicle 3.89618e-014 -4.45278e-014
lhumerus 2.97126 -36.4585 2.95502
lradius 19.365
lwrist -34.0664
lhand 31.553 29.5806
lfingers 7.12502
lthumb 55.0975 47.6485
rfemur -54.126 1.40325 32.3897
rtibia 33.6436
rfoot -20.9464 -29.8871
rtoes 19.3705
lfemur -36.1631 23.1697 -38.4754
ltibia 51.9785
lfoot 34.9465 28.4815
ltoes -2.25161
528
root 4.78695 16.5006 -17.3118 29.6202 6.62548 -2.76554
lowerback 13.9344 -2.42842 6.8821
upperback -11.5284 1.04931 14.2145
thorax -22.0562 1.153 12.66
lowerneck -15.092 2.17496 2.09629
upperneck -2.85692 2.68884 -7.82163
head 1.87026 1.07311 -2.77403
rclavicle 2.8625e-014 7.31528e-014
rhumerus 6.23798 -0.217812 4.94613
rradius 17.0768
rwrist 17.7337
rhand 30.0648 -4.07206
rfingers 7.12502
rthumb 53.7652 -23.0676
lclavicle 2.8625e-014 7.31528e-014
lhumerus 5.95383 -36.3312 2.22675
lradius 19.6559
lwrist -33.0781
lhand 29.6922 29.5658
lfingers 7.12502
lthumb 53.43 48.7821
rfemur -54.0882 1.64043 32.2522
rtibia 33.6801
rfoot -20.9989 -30.1856
rtoes 18.724
lfemur -36.2942 23.4119 -38.5275
ltibia 52.2121
lfoot 37.7258 26.8293
ltoes -8.43881
529
root 4.78477 16.4899 -17.3363 29.558 6.54063 -2.71687
lowerback 14.2574 -2.38132 6.71007
upperback -11.4272 1.11734 14.228
thorax -22.1618 1.21796 12.7694
lowerneck -15.1159 2.24425 1.85106
upperneck -2.85426 2.82049 -7.73847
head 1.87405 1.14246 -2.6908
rclavicle -2.46493e-014 -1.90833e-014
rhumerus 8.53236 -5.26717 2.72117
rradius 15.852
rwrist 23.4292
rhand 29.5834 -1.94838
rfingers 7.12502
rthumb 53.3321 -21.2282
lclavicle -2.46493e-014 -1.90833e-014
lhumerus 8.81423 -36.1796 1.59318
lradius 19.9622
lwrist -32.1893
lhand 27.3421 28.9926
lfingers 7.12502
lthumb 51.3023 49.5037
rfemur -54.0753 2.23084 31.8426
rtibia 33.6971
rfoot -21.1813 -30.7491
rtoes 18.6132
lfemur -36.4573 23.5779 -38.6192
ltibia 52.4685
lfoot 36.9288 27.258
ltoes -7.24141
530
root 4.80216 16.4851 -17.361 29.6675 6.5212 -2.76967
lowerback 13.9566 -2.3637 6.94482
upperback -11.1334 1.08585 14.1978
thorax -21.5233 1.11637 12.5061
lowerneck -15.289 2.32714 1.96644
upperneck -3.26233 2.88718 -7.87108
head 1.77706 1.17473 -2.75109
rclavicle 2.8625e-014 -4.45278e-014
rhumerus 11.0009 -11.7543 -0.502978
rradius 14.7734
rwrist 30.2118
rhand 29.5368 -0.713276
rfingers 7.12502
rthumb 53.29 -20.0203
lclavicle 2.8625e-014 -4.45278e-014
lhumerus 11.669 -35.1819 0.947339
lradius 20.2388
lwrist -31.7141
lhand 30.8608 29.8762
lfingers 7.12502
lthumb 54.4791 48.3851
rfemur -54.334 1.79467 32.1646
rtibia 33.7475
rfoot -20.6032 -30.4407
rtoes 17.5363
lfemur -36.8132 23.5996 -38.7561
ltibia 52.6938
lfoot 37.0995 26.8158
ltoes -8.62171
531
root 4.82934 16.4846 -17.3936 29.8637 6.41192 -2.81215
lowerback 13.9601 -2.35271 7.17525
upperback -11.0732 1.14461 14.1883
thorax -21.4456 1.09667 12.3226
lowerneck -15.1851 2.41804 2.08634
upperneck -3.42244 2.98382 -8.12773
head 1.72044 1.21981 -2.85435
rclavicle -2.06736e-014 0
rhumerus 13.5166 -14.9014 -3.42967
rradius 14.7968
rwrist 32.7141
rhand 30.8311 -3.38754
rfingers 7.12502
rthumb 54.4525 -21.9149
lclavicle -2.06736e-014 0
lhumerus 14.1335 -34.1443 0.836691
lradius 20.4209
lwrist -32.0196
lhand 29.6582 29.6916
lfingers 7.12502
lthumb 53.3994 48.9277
rfemur -54.7878 1.06963 32.6162
rtibia 33.8341
rfoot -19.9576 -29.7761
rtoes 16.4935
lfemur -37.2818 23.5358 -39.0528
ltibia 52.8829
lfoot 37.6503 26.3244
ltoes -10.4185
532
root 4.84477 16.4851 -17.4251 30.0188 6.25229 -2.74883
lowerback 14.1218 -2.34085 7.12984
upperback -11.1219 1.18316 14.165
thorax -21.6307 1.12773 12.3322
lowerneck -14.8349 2.49719 2.16499
upperneck -3.32499 3.09184 -8.41226
head 1.70802 1.27142 -2.96049
rclavicle 4.77083e-015 1.01778e-013
rhumerus 16.1787 -19.14 -7.00588
rradius 13.9966
rwrist 38.3408
rhand 29.6915 -1.70184
rfingers 7.12502
rthumb 53.4294 -20.9185
lclavicle 4.77083e-015 1.01778e-013
lhumerus 16.7233 -34.1401 0.445411
lradius 20.652
lwrist -31.7226
lhand 29.6576 29.4978
lfingers 7.12502
lthumb 53.3989 48.7343
rfemur -55.204 0.905578 32.5792
rtibia 33.9297
rfoot -19.8026 -29.5481
rtoes 16.4971
lfemur -37.6575 23.483 -39.3691
ltibia 53.0676
lfoot 37.2658 27.0549
ltoes -8.72646
533
root 4.85341 16.4822 -17.4483 30.1148 6.21239 -2.79344
lowerback 14.2066 -2.37902 7.16665
upperback -11.1167 1.15848 14.2005
thorax -21.6813 1.11783 12.3705
lowerneck -14.6284 2.60927 2.26701
upperneck -3.11388 3.24862 -8.70097
head 1.76337 1.34162 -3.07064
rclavicle -4.21423e-014 3.81667e-014
rhumerus 19.5744 -24.8563 -12.0824
rradius 13.2585
rwrist 45.3705
rhand 28.8405 -0.383198
rfingers 7.12502
rthumb 52.6616 -20.0875
lclavicle -4.21423e-014 3.81667e-014
lhumerus 19.5654 -34.8748 -0.445867
lradius 20.9274
lwrist -30.6708
lhand 30.5092 29.9562
lfingers 7.12502
lthumb 54.1641 48.6827
rfemur -55.5708 0.945889 32.5684
rtibia 34.0109
rfoot -19.4995 -29.7877
rtoes 16.0888
lfemur -37.97 23.4349 -39.4573
ltibia 53.2653
lfoot 36.7101 27.9516
ltoes -6.49634
534
root 4.86008 16.4731 -17.47 30.095 6.12228 -2.97845
lowerback 14.3738 -2.36404 7.25685
upperback -10.985 1.22455 14.2828
thorax -21.6348 1.13784 12.3885
lowerneck -14.7484 2.71638 2.39219
upperneck -2.94494 3.39249 -9.03947
head 1.86504 1.3963 -3.20399
rclavicle -4.45278e-014 7.95139e-014
rhumerus 23.196 -29.7897 -17.519
rradius 12.8842
rwrist 51.0612
rhand 28.6298 -0.330305
rfingers 7.12502
rthumb 52.4709 -20.152
lclavicle -4.45278e-014 7.95139e-014
lhumerus 22.1646 -34.5584 -0.69568
lradius 21.0647
lwrist -30.3341
lhand 28.5044 29.3977
lfingers 7.12502
lthumb 52.3575 49.2886
rfemur -55.8033 0.981009 32.7942
rtibia 34.0629
rfoot -18.4683 -30.2535
rtoes 13.807
lfemur -38.222 23.4572 -39.3957
ltibia 53.4588
lfoot 36.2418 28.5814
ltoes -5.21862
535
root 4.8678 16.4679 -17.4905 29.9982 5.95454 -2.99186
lowerback 14.5701 -2.29877 7.18684
upperback -10.7653 1.29329 14.2731
thorax -21.4797 1.16472 12.3678
lowerneck -15.1034 2.74836 2.61189
upperneck -2.91605 3.4086 -9.38597
head 1.95737 1.38277 -3.36737
rclavicle -6.36111e-015 7.63333e-014
rhumerus 26.8299 -33.6663 -22.9885
rradius 12.6049
rwrist 55.5786
rhand 28.0079 -0.231945
rfingers 7.12502
rthumb 51.9074 -20.3925
lclavicle -6.36111e-015 7.63333e-014
lhumerus 24.4432 -32.7515 0.0738254
lradius 21.1134
lwrist -30.9011
lhand 29.5638 29.9669
lfingers 7.12502
lthumb 53.3144 49.2581
rfemur -55.816 1.03795 32.751
rtibia 34.0558
rfoot -17.8876 -30.4743
rtoes 12.4051
lfemur -38.3147 23.5678 -39.4882
ltibia 53.5899
lfoot 36.0389 28.1704
ltoes -5.57728
536
root 4.87517 16.4662 -17.5111 29.9842 5.75686 -2.82177
lowerback 14.705 -2.24762 6.9087
upperback -10.5958 1.28853 14.2695
thorax -21.3466 1.196 12.5115
lowerneck -15.3 2.76461 2.62929
upperneck -3.03342 3.42269 -9.61531
head 1.96202 1.37981 -3.45035
rclavicle -3.65764e-014 6.36111e-014
rhumerus 31.4537 -37.7888 -29.7667
rradius 12.1735
rwrist 60.8372
rhand 26.9854 0.36745
rfingers 7.12502
rthumb 50.9774 -20.3265
lclavicle -3.65764e-014 6.36111e-014
lhumerus 26.3635 -30.4795 1.60213
lradius 21.1657
lwrist -31.798
lhand 30.9694 30.3565
lfingers 7.12502
lthumb 54.5764 48.7973
rfemur -55.8345 0.909653 32.5998
rtibia 34.0363
rfoot -17.9445 -30.1693
rtoes 12.6582
lfemur -38.3657 23.6149 -39.7712
ltibia 53.6037
lfoot 38.9521 27.2315
ltoes -9.80611
